<svg width="50" height="50" viewBox="0 0 50 50" fill="none" xmlns="http://www.w3.org/2000/svg">
<path d="M20.1323 40.4427C20.129 41.0789 20.251 41.7094 20.4915 42.2984C20.7319 42.8874 21.0859 43.4233 21.5335 43.8754C21.981 44.3276 22.5132 44.6872 23.0996 44.9337C23.6861 45.1801 24.3154 45.3087 24.9516 45.312C26.2363 45.3186 27.4711 44.8146 28.3843 43.9108C29.2975 43.007 29.8142 41.7775 29.8208 40.4927V40.4427M38.8281 34.0396V22.3646C38.8263 19.2569 37.7773 16.2405 35.8505 13.8022C33.9237 11.364 31.2314 9.64617 28.2083 8.92604V7.9C28.1931 7.0532 27.8461 6.24622 27.2418 5.65275C26.6376 5.05928 25.8245 4.72676 24.9776 4.72676C24.1307 4.72676 23.3176 5.05928 22.7134 5.65275C22.1091 6.24622 21.7621 7.0532 21.7469 7.9V8.9375C18.734 9.66581 16.0533 11.3856 14.1355 13.8208C12.2176 16.2559 11.1738 19.2649 11.1719 22.3646V34.0396L6.79166 38.4198V40.4427H43.2083V38.4198L38.8281 34.0396Z" stroke="#271863" stroke-width="3" stroke-linecap="round" stroke-linejoin="round"/>
</svg>
