<svg width="50" height="50" viewBox="0 0 50 50" fill="none" xmlns="http://www.w3.org/2000/svg">
<g clip-path="url(#clip0_2_64)">
<path d="M35.4813 19.8563C35.7747 19.5629 35.9395 19.1649 35.9395 18.75C35.9395 18.3351 35.7747 17.9372 35.4813 17.6438C35.1879 17.3504 34.7899 17.1855 34.375 17.1855C33.9601 17.1855 33.5622 17.3504 33.2688 17.6438L25 25.9156L21.4188 22.3313C21.2735 22.186 21.101 22.0707 20.9112 21.9921C20.7214 21.9135 20.518 21.873 20.3125 21.873C20.1071 21.873 19.9036 21.9135 19.7138 21.9921C19.524 22.0707 19.3515 22.186 19.2063 22.3313C19.061 22.4765 18.9458 22.649 18.8671 22.8388C18.7885 23.0286 18.748 23.2321 18.748 23.4375C18.748 23.643 18.7885 23.8464 18.8671 24.0362C18.9458 24.226 19.061 24.3985 19.2063 24.5438L23.8938 29.2313C24.0389 29.3768 24.2113 29.4922 24.4012 29.571C24.591 29.6498 24.7945 29.6903 25 29.6903C25.2055 29.6903 25.409 29.6498 25.5989 29.571C25.7887 29.4922 25.9611 29.3768 26.1063 29.2313L35.4813 19.8563Z" fill="#271863"/>
<path d="M1.5625 3.125C1.1481 3.125 0.750671 3.28962 0.457646 3.58265C0.16462 3.87567 0 4.2731 0 4.6875C0 5.1019 0.16462 5.49933 0.457646 5.79235C0.750671 6.08538 1.1481 6.25 1.5625 6.25H5.03125L6.28437 11.2719L10.9656 36.225C11.0327 36.5831 11.2227 36.9064 11.5028 37.1392C11.783 37.3721 12.1357 37.4997 12.5 37.5H15.625C13.9674 37.5 12.3777 38.1585 11.2056 39.3306C10.0335 40.5027 9.375 42.0924 9.375 43.75C9.375 45.4076 10.0335 46.9973 11.2056 48.1694C12.3777 49.3415 13.9674 50 15.625 50C17.2826 50 18.8723 49.3415 20.0444 48.1694C21.2165 46.9973 21.875 45.4076 21.875 43.75C21.875 42.0924 21.2165 40.5027 20.0444 39.3306C18.8723 38.1585 17.2826 37.5 15.625 37.5H37.5C35.8424 37.5 34.2527 38.1585 33.0806 39.3306C31.9085 40.5027 31.25 42.0924 31.25 43.75C31.25 45.4076 31.9085 46.9973 33.0806 48.1694C34.2527 49.3415 35.8424 50 37.5 50C39.1576 50 40.7473 49.3415 41.9194 48.1694C43.0915 46.9973 43.75 45.4076 43.75 43.75C43.75 42.0924 43.0915 40.5027 41.9194 39.3306C40.7473 38.1585 39.1576 37.5 37.5 37.5H40.625C40.9893 37.4997 41.342 37.3721 41.6222 37.1392C41.9023 36.9064 42.0924 36.5831 42.1594 36.225L46.8469 11.225C46.8891 10.9995 46.8811 10.7675 46.8235 10.5454C46.766 10.3233 46.6602 10.1166 46.5137 9.94001C46.3673 9.76342 46.1837 9.62125 45.9761 9.5236C45.7685 9.42595 45.5419 9.37521 45.3125 9.375H9.03125L7.76562 4.30937C7.68128 3.9712 7.48629 3.67093 7.21166 3.45633C6.93703 3.24172 6.59854 3.1251 6.25 3.125H1.5625ZM13.7969 34.375L9.69375 12.5H43.4312L39.3281 34.375H13.7969ZM18.75 43.75C18.75 44.5788 18.4208 45.3737 17.8347 45.9597C17.2487 46.5458 16.4538 46.875 15.625 46.875C14.7962 46.875 14.0013 46.5458 13.4153 45.9597C12.8292 45.3737 12.5 44.5788 12.5 43.75C12.5 42.9212 12.8292 42.1263 13.4153 41.5403C14.0013 40.9542 14.7962 40.625 15.625 40.625C16.4538 40.625 17.2487 40.9542 17.8347 41.5403C18.4208 42.1263 18.75 42.9212 18.75 43.75ZM40.625 43.75C40.625 44.5788 40.2958 45.3737 39.7097 45.9597C39.1237 46.5458 38.3288 46.875 37.5 46.875C36.6712 46.875 35.8763 46.5458 35.2903 45.9597C34.7042 45.3737 34.375 44.5788 34.375 43.75C34.375 42.9212 34.7042 42.1263 35.2903 41.5403C35.8763 40.9542 36.6712 40.625 37.5 40.625C38.3288 40.625 39.1237 40.9542 39.7097 41.5403C40.2958 42.1263 40.625 42.9212 40.625 43.75Z" fill="#271863"/>
</g>
<defs>
<clipPath id="clip0_2_64">
<rect width="50" height="50" fill="white"/>
</clipPath>
</defs>
</svg>
