<svg width="50" height="50" viewBox="0 0 50 50" fill="none" xmlns="http://www.w3.org/2000/svg">
<path d="M40.625 9.375V12.7656L8.81249 18.5469C8.0845 18.68 7.42737 19.0671 6.95811 19.6394C6.48885 20.2117 6.23792 20.9319 6.24999 21.6719V28.4531C6.23792 29.1931 6.48885 29.9133 6.95811 30.4856C7.42737 31.0579 8.0845 31.445 8.81249 31.5781L12.5 32.125V37.5C12.5 38.3288 12.8292 39.1237 13.4153 39.7097C14.0013 40.2958 14.7962 40.625 15.625 40.625H28.125C28.9538 40.625 29.7486 40.2958 30.3347 39.7097C30.9207 39.1237 31.25 38.3288 31.25 37.5V35.5312L40.625 37.2344V40.625H43.75V9.375H40.625ZM28.125 37.5H15.625V32.7031L28.125 34.9687V37.5ZM9.37499 28.3906V21.6094L40.625 15.9375V34.0625L9.37499 28.3906Z" fill="#271863"/>
</svg>
