<svg width="50" height="50" viewBox="0 0 50 50" fill="none" xmlns="http://www.w3.org/2000/svg">
<path fill-rule="evenodd" clip-rule="evenodd" d="M45.3125 6.25H28.125L27.0312 6.71875L25 8.71875L22.9688 6.71875L21.875 6.25H4.6875L3.125 7.8125V39.0625L4.6875 40.625H21.2188L23.9062 43.2812H26.0938L28.7812 40.625H45.3125L46.875 39.0625V7.8125L45.3125 6.25ZM23.4375 38.5L22.875 37.9687L21.875 37.5H6.25V9.375H21.2188L23.5312 11.6875L23.4375 38.5ZM43.75 37.5H28.125L27.0312 37.9687L26.5938 38.375V11.5625L28.7812 9.375H43.75V37.5ZM18.75 15.625H9.375V18.75H18.75V15.625ZM18.75 28.125H9.375V31.25H18.75V28.125ZM9.375 21.875H18.75V25H9.375V21.875ZM40.625 15.625H31.25V18.75H40.625V15.625ZM31.25 21.875H40.625V25H31.25V21.875ZM31.25 28.125H40.625V31.25H31.25V28.125Z" fill="#271863"/>
</svg>
