<svg width="50" height="50" viewBox="0 0 50 50" fill="none" xmlns="http://www.w3.org/2000/svg">
<path d="M8.59375 20.3125C9.31192 20.3125 10.0231 20.454 10.6866 20.7288C11.35 21.0036 11.9529 21.4064 12.4607 21.9143C12.9686 22.4221 13.3714 23.025 13.6462 23.6885C13.921 24.3519 14.0625 25.0631 14.0625 25.7812C14.0625 26.4994 13.921 27.2106 13.6462 27.874C13.3714 28.5375 12.9686 29.1404 12.4607 29.6482C11.9529 30.1561 11.35 30.5589 10.6866 30.8337C10.0231 31.1085 9.31192 31.25 8.59375 31.25C7.14335 31.25 5.75235 30.6738 4.72676 29.6482C3.70117 28.6227 3.125 27.2317 3.125 25.7812C3.125 24.3308 3.70117 22.9398 4.72676 21.9143C5.75235 20.8887 7.14335 20.3125 8.59375 20.3125ZM25 20.3125C25.7182 20.3125 26.4293 20.454 27.0928 20.7288C27.7563 21.0036 28.3592 21.4064 28.867 21.9143C29.3748 22.4221 29.7776 23.025 30.0525 23.6885C30.3273 24.3519 30.4688 25.0631 30.4688 25.7812C30.4688 26.4994 30.3273 27.2106 30.0525 27.874C29.7776 28.5375 29.3748 29.1404 28.867 29.6482C28.3592 30.1561 27.7563 30.5589 27.0928 30.8337C26.4293 31.1085 25.7182 31.25 25 31.25C23.5496 31.25 22.1586 30.6738 21.133 29.6482C20.1074 28.6227 19.5312 27.2317 19.5312 25.7812C19.5312 24.3308 20.1074 22.9398 21.133 21.9143C22.1586 20.8887 23.5496 20.3125 25 20.3125ZM41.4062 20.3125C42.1244 20.3125 42.8355 20.454 43.4991 20.7288C44.1625 21.0036 44.7654 21.4064 45.2732 21.9143C45.7811 22.4221 46.1839 23.025 46.4587 23.6885C46.7335 24.3519 46.875 25.0631 46.875 25.7812C46.875 26.4994 46.7335 27.2106 46.4587 27.874C46.1839 28.5375 45.7811 29.1404 45.2732 29.6482C44.7654 30.1561 44.1625 30.5589 43.4991 30.8337C42.8355 31.1085 42.1244 31.25 41.4062 31.25C39.9558 31.25 38.5648 30.6738 37.5393 29.6482C36.5137 28.6227 35.9375 27.2317 35.9375 25.7812C35.9375 24.3308 36.5137 22.9398 37.5393 21.9143C38.5648 20.8887 39.9558 20.3125 41.4062 20.3125Z" fill="#271863"/>
</svg>
