<svg width="50" height="50" viewBox="0 0 50 50" fill="none" xmlns="http://www.w3.org/2000/svg">
<g clip-path="url(#clip0_2_105)">
<path d="M50 25V24.9875C50 17.5896 46.7792 10.9458 41.6646 6.37709L41.6396 6.35626C41.5764 6.28816 41.5059 6.22737 41.4292 6.17501L41.425 6.17293C36.8825 2.18445 31.0409 -0.00968803 24.9958 0.00209187C18.6792 0.00209187 12.9125 2.34792 8.51667 6.21876L8.54376 6.19584C8.49077 6.23603 8.44192 6.28139 8.39792 6.33126V6.33334C5.75527 8.67332 3.63999 11.5481 2.19221 14.7673C0.744428 17.9865 -0.00280602 21.4765 7.91805e-06 25.0063C7.91805e-06 32.4021 3.21667 39.0458 8.32709 43.6167L8.35209 43.6375C8.41827 43.7126 8.4923 43.7803 8.57292 43.8396L8.57709 43.8417C13.1184 47.8243 18.9556 50.0151 24.9958 50.0042C31.0643 50.0135 36.9265 47.8023 41.4771 43.7875L41.45 43.8104C44.1385 41.473 46.2935 38.5855 47.7693 35.3431C49.2451 32.1007 50.0073 28.5791 50.0042 25.0167V25.0021L50 25ZM40.7042 41.2604C39.4658 40.2587 38.1339 39.3782 36.7271 38.6313L36.5917 38.5646C37.8688 34.8833 38.6375 30.6396 38.7104 26.225V26.1917H47.5875C47.2881 31.9029 44.8299 37.2871 40.7104 41.2542L40.7042 41.2604ZM26.1917 38.125C28.8646 38.2688 31.3625 38.8563 33.6667 39.8125L33.5167 39.7583C31.6708 43.9667 29.0729 46.8583 26.1917 47.4938V38.125ZM26.1917 35.7417V26.1917H36.3333C36.2529 30.1464 35.5672 34.0654 34.3 37.8125L34.3813 37.5396C31.7947 36.4765 29.0437 35.8689 26.25 35.7438L26.1938 35.7417H26.1917ZM26.1917 23.8083V14.2583C29.0608 14.1274 31.8854 13.4993 34.5396 12.4021L34.375 12.4625C35.5313 15.8354 36.2417 19.7229 36.3333 23.7646V23.8083H26.1917ZM26.1917 11.875V2.51043C29.0729 3.14584 31.6708 6.02501 33.5167 10.2458C31.3625 11.1417 28.8646 11.7271 26.2521 11.8729L26.1917 11.875ZM32.1375 3.54168C34.5924 4.3605 36.8883 5.59513 38.925 7.19167L38.8771 7.15418C37.9542 7.87918 36.9188 8.56251 35.8271 9.15626L35.7104 9.21459C34.8283 7.13277 33.6154 5.20724 32.1188 3.51251L32.1375 3.53542V3.54168ZM23.8042 2.51667V11.875C21.2344 11.7439 18.7061 11.1731 16.3292 10.1875L16.4792 10.2417C18.3333 6.03334 20.9271 3.14376 23.8083 2.50834L23.8042 2.51667ZM14.2875 9.20834C13.1582 8.60075 12.0822 7.89896 11.0708 7.11043L11.1208 7.14792C13.0982 5.59824 15.3223 4.39251 17.7 3.58126L17.8583 3.53334C16.4009 5.18216 15.2133 7.05107 14.3396 9.07084L14.2875 9.20626V9.20834ZM23.8083 14.2563V23.8063H13.6667C13.7583 19.7208 14.4688 15.8333 15.7063 12.1875L15.625 12.4604C18.2105 13.5218 20.96 14.1287 23.7521 14.2542L23.8083 14.2563ZM23.8083 26.1896V35.7396C20.9392 35.8705 18.1147 36.4986 15.4604 37.5958L15.625 37.5354C14.4688 34.1646 13.7583 30.275 13.6667 26.2333V26.1896H23.8083ZM23.8083 38.1229V47.4875C20.9271 46.8521 18.3292 43.9729 16.4833 39.7521C18.6375 38.8563 21.1354 38.2729 23.7479 38.1271L23.8083 38.125V38.1229ZM17.8708 46.4563C15.4166 45.6398 13.1207 44.408 11.0833 42.8146L11.1333 42.8521C12.0563 42.1271 13.0917 41.4438 14.1833 40.85L14.3 40.7917C15.1748 42.8743 16.3876 44.7982 17.8896 46.4854L17.8708 46.4646V46.4563ZM35.7125 40.7896C36.9208 41.4458 37.9563 42.1271 38.9292 42.8875L38.8792 42.85C36.9018 44.3997 34.6777 45.6054 32.3 46.4167L32.1417 46.4646C33.5991 44.8165 34.7867 42.9483 35.6604 40.9292L35.7125 40.7938V40.7896ZM47.5875 23.8083H38.7104C38.6466 19.4978 37.9027 15.2244 36.5063 11.1458L36.5917 11.4333C38.0633 10.6585 39.4566 9.7431 40.7521 8.70001L40.7021 8.73751C44.8131 12.6897 47.2722 18.0538 47.5833 23.7479L47.5854 23.8063L47.5875 23.8083ZM9.29584 8.73959C10.4958 9.71459 11.8438 10.6083 13.2729 11.3688L13.4083 11.4354C12.1313 15.1167 11.3625 19.3604 11.2896 23.775V23.8083H2.41042C2.70978 18.0971 5.16803 12.7129 9.28751 8.74584L9.29376 8.73959H9.29584ZM2.41251 26.1917H11.2896C11.3535 30.5022 12.0973 34.7756 13.4938 38.8542L13.4083 38.5667C11.8438 39.3979 10.4979 40.2917 9.24792 41.3L9.29792 41.2625C5.18696 37.3104 2.72785 31.9462 2.41667 26.2521L2.41459 26.1938L2.41251 26.1917Z" fill="#271863"/>
</g>
<defs>
<clipPath id="clip0_2_105">
<rect width="50" height="50" fill="white"/>
</clipPath>
</defs>
</svg>
